<svg version="1" xmlns="http://www.w3.org/2000/svg" width="682.667" height="682.667" viewBox="0 0 512.000000 512.000000"><path d="M0 256v256h512V0H0v256zm502 0v246H10V10h492v246z"/><path d="M140.7 253.7l.3 142.8 18.5.3 18.5.2V269.9l32.8.3 32.7.3 9.7 4.8c18.4 9 28.2 21.3 73.7 92.9l18.3 28.8h23.4c12.9 0 23.4-.2 23.4-.5s-6.7-11-14.8-23.8c-45.7-71.4-45.2-70.7-58.6-84.5-8.7-9-13.7-12.8-23-17.8-3.2-1.7-5.4-3.4-5-3.7.5-.3 4.8-1.2 9.5-2.1 43.5-8.1 68.9-36.1 68.9-75.9 0-10.6-.3-12.9-3.7-24.7-6.6-23.2-24.6-41.9-45.9-47.5-18.9-5-16-4.9-99.9-5.2l-79-.4.2 142.8zm149.4-109.1c24.8 4.6 39.9 21 39.9 43.4 0 22.8-13.1 39.4-35.7 45.4-10.7 2.9-28 3.7-72.3 3.4l-43.5-.3-.3-46.8-.2-46.7h51.9c42.8 0 53.3.3 60.2 1.6z"/></svg>